<svg id="Layer_1" data-name="Layer 1" xmlns="http://www.w3.org/2000/svg" viewBox="0 0 393.59 229.69"><defs><style>.cls-1{fill:#f7941d;}.cls-2{fill:#0061af;}.cls-3{fill:#fff;}</style></defs><path class="cls-1" d="M400.94,429.23h-3.7v12.11h-1.62V429.23h-3.69v-1.54h9Z" transform="translate(-126.98 -258.75)"/><path class="cls-1" d="M405.1,441.58a4.25,4.25,0,0,1-3.35-1.41,5.4,5.4,0,0,1-1.24-3.73,5.63,5.63,0,0,1,1.28-3.91,4.56,4.56,0,0,1,3.51-1.42,4.12,4.12,0,0,1,3.3,1.38,6.56,6.56,0,0,1-.08,7.65A4.34,4.34,0,0,1,405.1,441.58Zm.11-1.41a2.61,2.61,0,0,0,2.19-1,5.62,5.62,0,0,0,0-5.66,2.6,2.6,0,0,0-2.18-1,2.73,2.73,0,0,0-2.25,1,4.41,4.41,0,0,0-.83,2.84,4.23,4.23,0,0,0,.83,2.76A2.77,2.77,0,0,0,405.21,440.17Z" transform="translate(-126.98 -258.75)"/><path class="cls-1" d="M419.93,441.34h-1.59v-1.59h0a3.38,3.38,0,0,1-1.2,1.37,3.15,3.15,0,0,1-1.7.46,3,3,0,0,1-2.5-1.07,5.06,5.06,0,0,1-.84-3.19v-6h1.59v5.71a4.09,4.09,0,0,0,.55,2.33,1.92,1.92,0,0,0,1.67.78,2.23,2.23,0,0,0,1.78-.85,3.43,3.43,0,0,0,.69-2.23v-5.74h1.59Z" transform="translate(-126.98 -258.75)"/><path class="cls-1" d="M427.73,432.8l-.33-.09a1.9,1.9,0,0,0-.37,0,2,2,0,0,0-1.78,1,4.66,4.66,0,0,0-.65,2.58v5H423v-10h1.59v2h0a3.27,3.27,0,0,1,1-1.6,2.28,2.28,0,0,1,1.52-.55,3.23,3.23,0,0,1,.48,0l.37.08Z" transform="translate(-126.98 -258.75)"/><path class="cls-1" d="M445.2,441.34l-1.53-1.58a6.86,6.86,0,0,1-1.82,1.27,5.58,5.58,0,0,1-2.5.53,4.78,4.78,0,0,1-3.16-1,3.57,3.57,0,0,1-1.23-2.93,4,4,0,0,1,.72-2.4,5.62,5.62,0,0,1,2-1.66,6.07,6.07,0,0,1-1-1.52,3.83,3.83,0,0,1-.29-1.45,2.83,2.83,0,0,1,1-2.31,3.64,3.64,0,0,1,2.41-.81,3.33,3.33,0,0,1,2.3.79,2.7,2.7,0,0,1,.89,2.11,3,3,0,0,1-.58,1.88,6.8,6.8,0,0,1-2.46,1.62l3.71,3.78a5.41,5.41,0,0,0,.89-1.78,7.9,7.9,0,0,0,.27-2.21h1.5a8.19,8.19,0,0,1-.41,2.65,8.57,8.57,0,0,1-1.27,2.32l2.64,2.72Zm-2.48-2.57-4.13-4.27a4.2,4.2,0,0,0-1.45,1.13,3,3,0,0,0-.56,1.92,2.31,2.31,0,0,0,.8,1.9,3,3,0,0,0,2,.67,4.37,4.37,0,0,0,1.91-.39A5.63,5.63,0,0,0,442.72,438.77ZM439.11,433a5.39,5.39,0,0,0,1.93-1.1,1.94,1.94,0,0,0,.5-1.35,1.5,1.5,0,0,0-.55-1.31,2,2,0,0,0-2.53.08,1.76,1.76,0,0,0-.51,1.32,2.38,2.38,0,0,0,.3,1.18A6.64,6.64,0,0,0,439.11,433Z" transform="translate(-126.98 -258.75)"/><path class="cls-1" d="M462.42,429.23h-3.69v12.11H457.1V429.23h-3.68v-1.54h9Z" transform="translate(-126.98 -258.75)"/><path class="cls-1" d="M467.53,432.8l-.33-.09a1.9,1.9,0,0,0-.37,0,2,2,0,0,0-1.78,1,4.66,4.66,0,0,0-.65,2.58v5h-1.59v-10h1.59v2h0a3.27,3.27,0,0,1,1-1.6,2.28,2.28,0,0,1,1.52-.55,3.33,3.33,0,0,1,.48,0l.37.08Z" transform="translate(-126.98 -258.75)"/><path class="cls-1" d="M476.27,441.34h-1.58v-1.57h0a3.67,3.67,0,0,1-1.19,1.35,3.06,3.06,0,0,1-1.66.46,2.91,2.91,0,0,1-2.14-.82,3.26,3.26,0,0,1,0-4.31,4.16,4.16,0,0,1,2.37-1.07l2.66-.38v-.23a2.35,2.35,0,0,0-.54-1.74,2,2,0,0,0-1.45-.54,3.43,3.43,0,0,0-1.41.3,4.5,4.5,0,0,0-1.31.88l-.86-1a5.31,5.31,0,0,1,1.7-1.16,5.1,5.1,0,0,1,2-.38,3.35,3.35,0,0,1,2.59.95,4,4,0,0,1,.87,2.82Zm-1.57-4.08v-1l-2.23.32a3.32,3.32,0,0,0-1.54.56,1.48,1.48,0,0,0-.51,1.25,1.75,1.75,0,0,0,.48,1.32,1.64,1.64,0,0,0,1.19.46,2.33,2.33,0,0,0,1.89-.83A3.11,3.11,0,0,0,474.7,437.26Z" transform="translate(-126.98 -258.75)"/><path class="cls-1" d="M486.72,431.35l-3.71,10h-1.6l-3.53-10h1.74l2.33,7.19c.08.27.15.53.21.76s.09.45.12.66h0a6.75,6.75,0,0,1,.12-.72,6.16,6.16,0,0,1,.18-.65l2.43-7.24Z" transform="translate(-126.98 -258.75)"/><path class="cls-1" d="M496,436.73h-6.59a3.89,3.89,0,0,0,.83,2.55,2.79,2.79,0,0,0,2.2.89,4.17,4.17,0,0,0,1.27-.21,4.43,4.43,0,0,0,1.29-.67l.73,1.18a6.23,6.23,0,0,1-1.64.84,5.67,5.67,0,0,1-1.8.27,4.17,4.17,0,0,1-3.31-1.35,5.57,5.57,0,0,1-1.2-3.77,6,6,0,0,1,1.2-3.88,3.89,3.89,0,0,1,3.14-1.47,3.48,3.48,0,0,1,2.86,1.27,5.53,5.53,0,0,1,1,3.54Zm-1.6-1.33a3.43,3.43,0,0,0-.62-2.14,2,2,0,0,0-1.69-.77,2.36,2.36,0,0,0-1.78.79,3.71,3.71,0,0,0-.89,2.12Z" transform="translate(-126.98 -258.75)"/><path class="cls-1" d="M498.38,441.34V426.91H500v14.43Z" transform="translate(-126.98 -258.75)"/><path class="cls-1" d="M502.23,440.59l.74-1.27a5.21,5.21,0,0,0,1.17.64,3.74,3.74,0,0,0,1.28.22,2.41,2.41,0,0,0,1.43-.37,1.3,1.3,0,0,0,.49-1.1,1.32,1.32,0,0,0-.44-1,3.3,3.3,0,0,0-1.36-.67,4.85,4.85,0,0,1-2.39-1.19,2.64,2.64,0,0,1-.65-1.81,2.72,2.72,0,0,1,.9-2.09,3.46,3.46,0,0,1,2.45-.83,4.74,4.74,0,0,1,1.42.21,4.94,4.94,0,0,1,1.36.68l-.69,1.26a4.71,4.71,0,0,0-1.12-.59,3.21,3.21,0,0,0-1-.17,2.17,2.17,0,0,0-1.35.36,1.17,1.17,0,0,0-.48,1,1.15,1.15,0,0,0,.47,1,4.94,4.94,0,0,0,1.54.63,4.84,4.84,0,0,1,2.15,1.14,2.68,2.68,0,0,1,.71,1.94,2.73,2.73,0,0,1-.94,2.19,3.73,3.73,0,0,1-2.54.82,5.39,5.39,0,0,1-1.66-.26A5.32,5.32,0,0,1,502.23,440.59Z" transform="translate(-126.98 -258.75)"/><path class="cls-1" d="M287.72,382.58A139.65,139.65,0,0,1,263.92,410c-45.6,39.56-94.89,16.63-118.41,1.15a121.26,121.26,0,0,1-14-10.59,201.69,201.69,0,0,0,13.92,15.43l-.95,35.28c-.4,15,8.3,27.78,20,30.65a.66.66,0,0,1,0-.14,13.16,13.16,0,1,1,26.31.71c0,.21,0,.41-.05.62l32.77.88c0-.21,0-.41,0-.63a13.15,13.15,0,0,1,26.24-.92c9.36-4.31,16.21-15.13,16.55-27.89l1.11-41.39-.33-.32A162.45,162.45,0,0,0,287.72,382.58Z" transform="translate(-126.98 -258.75)"/><circle class="cls-2" cx="177.59" cy="479.25" r="7.6" transform="translate(-220.8 -212.58) rotate(-11.74)"/><circle class="cls-2" cx="236.61" cy="480.84" r="7.6" transform="translate(-219.89 -200.53) rotate(-11.74)"/><path class="cls-2" d="M269,362.15l-1.07,39.79c-46.39,44.13-98.39,19.94-122.58,4.13l1.27-47.21c.46-16.82,12.25-30.26,26.21-29.88l71.6,1.92C258.38,331.28,269.44,345.33,269,362.15Z" transform="translate(-126.98 -258.75)"/><rect class="cls-1" x="177.87" y="281.84" width="2.56" height="44.04" transform="translate(-118.75 -263.45) rotate(1.54)"/><rect class="cls-1" x="238.17" y="283.46" width="2.56" height="44.04" transform="translate(-118.68 -265.07) rotate(1.54)"/><path class="cls-1" d="M240.57,281.3l-.93,0,.08-3.11c.22-8-4.53-14.72-10.57-14.88l-37.45-1c-6-.16-11.13,6.25-11.35,14.29l-.08,3.12-.93,0,.08-3.11c.23-8.56,5.75-15.37,12.31-15.2l37.44,1c6.56.18,11.71,7.28,11.48,15.83Z" transform="translate(-126.98 -258.75)"/><rect class="cls-2" x="195.89" y="259.13" width="29.12" height="5.96" rx="0.4" transform="translate(-119.86 -264.31) rotate(1.54)"/><circle class="cls-1" cx="55.93" cy="119.09" r="10.21"/><path class="cls-1" d="M239.9,389.78a1.37,1.37,0,0,1-.77-.26l-13.76-9.84a1.4,1.4,0,0,1,.18-2.38l16-8.13a1.39,1.39,0,1,1,1.27,2.48l-14,7.09,11.9,8.51a1.4,1.4,0,0,1-.85,2.53Z" transform="translate(-126.98 -258.75)"/><path class="cls-3" d="M127.67,407s.09-8.89,9.54-8.84" transform="translate(-126.98 -258.75)"/><path class="cls-1" d="M127.67,407c-2.18-4,1.1-9.36,5.51-9.7a6.25,6.25,0,0,1,4,.86,17.91,17.91,0,0,1-1.69,1c-3.54,1.86-5.59,4.45-7.85,7.81Z" transform="translate(-126.98 -258.75)"/><path class="cls-1" d="M325.81,355.74h0c-5.14,6-10,11.06-10,11.06s-8.5,9-14.85,11.05a64,64,0,0,1-11.57,2.64l14.78-18.59,9.34,2.53-14.35-6.09-2.46,3.7s-3.47,2.78-2.58-2.17l1.25-3-17.7-7.36,37,5-3.18-1.76a111.42,111.42,0,0,1,6.86-9.76s3.35-5.82,9.36-7.17c0,0-3.1,3.36-1.43,4.68,0,0,.74.77,5.9-5.26l0,0c.11-.18,3.56-.86,5.46,1C340.78,339.25,326,355.37,325.81,355.74Z" transform="translate(-126.98 -258.75)"/><path class="cls-1" d="M338.23,337.2a1.73,1.73,0,0,0-.47-1.15,5.88,5.88,0,0,0-4.59-1.29c-.23,0-1,.12-1.1.3-4.76,5.55-5.68,5.25-5.71,5.24a1.09,1.09,0,0,1-.42-.77c-.15-1.45,1.85-3.63,1.87-3.66l.36-.39-.5.11c-6,1.34-9.41,7.17-9.42,7.21a107.86,107.86,0,0,0-6.88,9.79l-.09.15,2.58,1.43-37.33-5,18.67,7.77L294,359.79v0c-.29,1.59-.17,2.56.36,3,.85.65,2.38-.56,2.45-.61l2.42-3.64,12.11,5.13-7.12-1.93-.09,0-15.08,19,.38,0a64.51,64.51,0,0,0,11.6-2.65,22.21,22.21,0,0,0,5.55-3,72.3,72.3,0,0,0,9.36-8.11c0-.05,4.88-5.08,10-11.07l.8-.94-.06,0,.14-.16C329.69,351.43,338.49,341.18,338.23,337.2ZM289.8,380.28l14.47-18.2,9.26,2.51.06-.31-14.45-6.14-2.51,3.78c-.4.33-1.54,1-2.1.6-.4-.31-.48-1.2-.23-2.6l1.31-3.17-16.72-6.95,36.59,4.91-3.77-2.09a110.42,110.42,0,0,1,6.77-9.61c0-.05,3.2-5.46,8.78-7-.59.72-1.73,2.29-1.61,3.51a1.42,1.42,0,0,0,.53,1c.2.2,1.23.44,6.12-5.27h0c.28-.18,3.48-.74,5.26,1a1.49,1.49,0,0,1,.38.92c.24,3.84-8.49,14-11.35,17.35-.71.83-.87,1-.92,1.09h0c-5.06,6-9.89,11-9.93,11s-8.55,9-14.8,11A65.67,65.67,0,0,1,289.8,380.28Z" transform="translate(-126.98 -258.75)"/><path class="cls-2" d="M318.9,384.22a2,2,0,0,1,1,1.8,2.16,2.16,0,0,1-.87,1.84,4.15,4.15,0,0,1-2.51.64H308.2v28.59a4.51,4.51,0,0,1-.87,3,3.07,3.07,0,0,1-2.49,1,3,3,0,0,1-2.45-1,4.62,4.62,0,0,1-.84-3V388.5h-7.73a5.62,5.62,0,0,1-3-.64,2.06,2.06,0,0,1-1-1.84,2,2,0,0,1,1-1.8,5.73,5.73,0,0,1,3-.63H316A5.7,5.7,0,0,1,318.9,384.22Z" transform="translate(-126.98 -258.75)"/><path class="cls-2" d="M323.37,387.57a3.57,3.57,0,0,1,4-4h11a16.22,16.22,0,0,1,8.74,2.23q3.6,2.24,3.6,8a10.5,10.5,0,0,1-1.78,6.27,11,11,0,0,1-4.6,3.7l5.57,12.69a4.78,4.78,0,0,1,.48,2,2.47,2.47,0,0,1-.8,1.94,3.2,3.2,0,0,1-2.23.72,4,4,0,0,1-1.88-.39,3.11,3.11,0,0,1-1.19-1.12,11.39,11.39,0,0,1-.94-2L338,404.94h-8v12.15a4.62,4.62,0,0,1-.85,3,3.48,3.48,0,0,1-4.94,0,4.56,4.56,0,0,1-.86-3ZM330,400h7.54a6.93,6.93,0,0,0,4.81-1.53,5.61,5.61,0,0,0,1.69-4.4,5.07,5.07,0,0,0-1.74-4.21,7.86,7.86,0,0,0-5-1.39H330Z" transform="translate(-126.98 -258.75)"/><path class="cls-2" d="M353.71,420.46a2.8,2.8,0,0,1-.82-2.14,5,5,0,0,1,.27-1.53L363,386.85q1-3.41,4.16-3.41h3a4.08,4.08,0,0,1,2.65.84,5.11,5.11,0,0,1,1.54,2.57l9.79,29.94a5,5,0,0,1,.24,1.53,2.8,2.8,0,0,1-.81,2.14,3.06,3.06,0,0,1-2.19.76,3.2,3.2,0,0,1-2.42-.84,6,6,0,0,1-1.29-2.69l-2-6.62H361.66l-2,6.62a6.17,6.17,0,0,1-1.33,2.69,3.24,3.24,0,0,1-2.41.84A3.08,3.08,0,0,1,353.71,420.46Zm20.35-14.3-5.15-16.61-.3-1.26q-.09.57-.27,1.26l-5.15,16.61Z" transform="translate(-126.98 -258.75)"/><path class="cls-2" d="M391.77,419.94A5,5,0,0,1,390,417.3l-9.73-29.58a5.14,5.14,0,0,1-.24-1.43,2.75,2.75,0,0,1,.92-2.2,3.45,3.45,0,0,1,2.35-.8,3,3,0,0,1,2.32.82,6.64,6.64,0,0,1,1.21,2.74l8.56,28.53L404,386.85a6.33,6.33,0,0,1,1.24-2.72,3,3,0,0,1,2.32-.84,3.27,3.27,0,0,1,2.3.8,2.85,2.85,0,0,1,.87,2.23,4.25,4.25,0,0,1-.21,1.4l-9.76,29.58a4.86,4.86,0,0,1-1.76,2.64,5.51,5.51,0,0,1-3.21.86H395A5.39,5.39,0,0,1,391.77,419.94Z" transform="translate(-126.98 -258.75)"/><path class="cls-2" d="M436.79,387.86a5.27,5.27,0,0,1-2.89.64H419.2v11.08h12a4.67,4.67,0,0,1,2.72.61,2.44,2.44,0,0,1,0,3.68,4.66,4.66,0,0,1-2.72.62h-12v11.25h14.7q3.87,0,3.87,2.46c0,1.64-1.29,2.45-3.87,2.45H416.57a3.6,3.6,0,0,1-4-4V387.57a4,4,0,0,1,1-3,4.06,4.06,0,0,1,3-1H433.9q3.87,0,3.87,2.43A2.09,2.09,0,0,1,436.79,387.86Z" transform="translate(-126.98 -258.75)"/><path class="cls-2" d="M463.71,416.37a2.14,2.14,0,0,1,0,3.66,5.91,5.91,0,0,1-3,.62H445.1a3.6,3.6,0,0,1-4-4V387.3a4.58,4.58,0,0,1,.85-3,3.48,3.48,0,0,1,4.94,0,4.58,4.58,0,0,1,.85,3v28.44h13A5.8,5.8,0,0,1,463.71,416.37Z" transform="translate(-126.98 -258.75)"/><path class="cls-2" d="M467.06,420.46a2.77,2.77,0,0,1-.82-2.14,5.33,5.33,0,0,1,.26-1.53l9.79-29.94q1-3.41,4.17-3.41h3a4.06,4.06,0,0,1,2.65.84,5,5,0,0,1,1.54,2.57l9.79,29.94a5,5,0,0,1,.24,1.53,2.8,2.8,0,0,1-.81,2.14,3,3,0,0,1-2.18.76,3.23,3.23,0,0,1-2.43-.84,6,6,0,0,1-1.29-2.69l-2-6.62H475l-2,6.62a6.07,6.07,0,0,1-1.33,2.69,3.23,3.23,0,0,1-2.41.84A3.06,3.06,0,0,1,467.06,420.46Zm20.34-14.3-5.15-16.61-.3-1.26q-.09.57-.27,1.26l-5.15,16.61Z" transform="translate(-126.98 -258.75)"/><path class="cls-2" d="M504,420.22a4.49,4.49,0,0,1-.84-3V406.34a12.3,12.3,0,0,1-1.41-2l-8.8-16.29a4.5,4.5,0,0,1-.63-2.3,2.24,2.24,0,0,1,.9-1.83,3.67,3.67,0,0,1,2.36-.72,2.74,2.74,0,0,1,1.95.68,8.35,8.35,0,0,1,1.56,2.38l7.39,15,7.4-15.08a7.56,7.56,0,0,1,1.6-2.31,2.92,2.92,0,0,1,2-.69,3.44,3.44,0,0,1,2.3.71,2.21,2.21,0,0,1,.84,1.78,4.77,4.77,0,0,1-.66,2.36l-8.8,16.29a10.61,10.61,0,0,1-1.37,2v11a4.46,4.46,0,0,1-.86,2.94,3.06,3.06,0,0,1-2.47,1A3,3,0,0,1,504,420.22Z" transform="translate(-126.98 -258.75)"/></svg>