<?xml version="1.0" standalone="no"?>
<svg xmlns:xlink="http://www.w3.org/1999/xlink" id="wave" style="transform:rotate(0deg); transition: 0.3s" viewBox="0 0 1440 210" version="1.1" xmlns="http://www.w3.org/2000/svg"><defs><linearGradient id="sw-gradient-0" x1="0" x2="0" y1="1" y2="0"><stop stop-color="#0d2b3e" offset="0%"/><stop stop-color="#0d2b3e" offset="100%"/></linearGradient></defs><path style="transform:translate(0, 0px); opacity:1" fill="url(#sw-gradient-0)" d="M0,168L40,161C80,154,160,140,240,129.5C320,119,400,112,480,122.5C560,133,640,161,720,168C800,175,880,161,960,143.5C1040,126,1120,105,1200,105C1280,105,1360,126,1440,143.5C1520,161,1600,175,1680,154C1760,133,1840,77,1920,45.5C2000,14,2080,7,2160,31.5C2240,56,2320,112,2400,129.5C2480,147,2560,126,2640,98C2720,70,2800,35,2880,28C2960,21,3040,42,3120,56C3200,70,3280,77,3360,70C3440,63,3520,42,3600,38.5C3680,35,3760,49,3840,70C3920,91,4000,119,4080,136.5C4160,154,4240,161,4320,168C4400,175,4480,182,4560,178.5C4640,175,4720,161,4800,154C4880,147,4960,147,5040,126C5120,105,5200,63,5280,70C5360,77,5440,133,5520,133C5600,133,5680,77,5720,49L5760,21L5760,210L5720,210C5680,210,5600,210,5520,210C5440,210,5360,210,5280,210C5200,210,5120,210,5040,210C4960,210,4880,210,4800,210C4720,210,4640,210,4560,210C4480,210,4400,210,4320,210C4240,210,4160,210,4080,210C4000,210,3920,210,3840,210C3760,210,3680,210,3600,210C3520,210,3440,210,3360,210C3280,210,3200,210,3120,210C3040,210,2960,210,2880,210C2800,210,2720,210,2640,210C2560,210,2480,210,2400,210C2320,210,2240,210,2160,210C2080,210,2000,210,1920,210C1840,210,1760,210,1680,210C1600,210,1520,210,1440,210C1360,210,1280,210,1200,210C1120,210,1040,210,960,210C880,210,800,210,720,210C640,210,560,210,480,210C400,210,320,210,240,210C160,210,80,210,40,210L0,210Z"/></svg>