<svg xmlns="http://www.w3.org/2000/svg" version="1.1" xmlns:xlink="http://www.w3.org/1999/xlink" xmlns:svgjs="http://svgjs.dev/svgjs" width="1440" height="560" preserveAspectRatio="none" viewBox="0 0 1440 560"><g mask="url(&quot;#SvgjsMask1042&quot;)" fill="none"><rect width="1440" height="560" x="0" y="0" fill="rgba(14, 190, 152, 1)"></rect><path d="M0,279.042C53.548,271.761,103.169,258.225,153.787,239.297C217.963,215.299,297.48,210.122,335.944,153.421C374.963,95.903,372.741,15.413,350.285,-50.363C329.234,-112.022,269.434,-148.579,218.829,-189.616C176.265,-224.132,127.855,-244.68,79.31,-270.106C17.416,-302.524,-37.411,-374.914,-105.565,-359.522C-172.871,-344.322,-188.328,-254.376,-230.875,-200.054C-270.8,-149.08,-344.52,-114.688,-347.973,-50.031C-351.448,15.034,-276.34,54.598,-247.598,113.074C-220.03,169.162,-235.15,250.324,-183.237,285.122C-131.424,319.853,-61.807,287.446,0,279.042" fill="#097c63"></path><path d="M1440 1052.033C1534.464 1051.865 1628.766 1028.385 1706.792 975.136 1783.621 922.704 1834.495 842.406 1871.936 757.259 1908.976 673.024 1939.399 580.912 1919.659 491.03499999999997 1900.4560000000001 403.6 1816.867 351.096 1766.479 277.104 1707.628 190.685 1695.6970000000001 58.58600000000001 1598.658 19.660999999999945 1502.4-18.951000000000022 1402.251 63.36200000000002 1302.257 90.88999999999999 1200.174 118.993 1072.742 101.69600000000003 1005.019 183.086 937.283 264.492 973.225 386.397 968.346 492.18600000000004 963.972 587.011 940.986 683.579 977.9 771.034 1015.31 859.664 1090.3980000000001 926.104 1172.596 976.088 1253.404 1025.226 1345.425 1052.202 1440 1052.033" fill="#25efc3"></path></g><defs><mask id="SvgjsMask1042"><rect width="1440" height="560" fill="#ffffff"></rect></mask></defs></svg>